<svg id="a" xmlns="http://www.w3.org/2000/svg" viewBox="0 0 181 143.4">
  <defs>
    <style>
      .d{fill:#8946ab;isolation:isolate;opacity:.3}
    </style>
  </defs>
  <path class="d" d="M90.98 8.09H0v89.82c0 20.48 13.56 38.82 33.39 43.93 30.36 7.82 57.59-14.86 57.59-43.93V8.09Z"/>
  <path d="M90.98 0H0v89.82c0 20.48 13.56 38.82 33.39 43.93 30.36 7.82 57.59-14.86 57.59-43.93V0Z" style="fill:#fff"/>
  <g>
    <path class="d" d="M181.97 8.09H90.98v89.82c0 20.48 13.56 38.82 33.39 43.93 30.36 7.82 57.59-14.86 57.59-43.93V8.09Z"/>
    <path d="M181.97 0H90.98v89.82c0 20.48 13.56 38.82 33.39 43.93 30.36 7.82 57.59-14.86 57.59-43.93V0Z" style="fill:#ff7dbd"/>
  </g>
</svg>
